<?xml version="1.0" encoding="UTF-8"?> <svg xmlns="http://www.w3.org/2000/svg" width="99.745" height="53.906" viewBox="0 0 99.745 53.906"><defs><style>.a{fill:#fff;}</style></defs><g transform="translate(-1207 -1142.094)"><g transform="translate(998.728 1130.236)"><path class="a" d="M261.177,39.078l2.288-2.741a8.074,8.074,0,0,0,5.256,2.138c1.584,0,2.539-.629,2.539-1.66v-.05c0-.981-.6-1.484-3.545-2.238-3.546-.906-5.834-1.886-5.834-5.381v-.051c0-3.193,2.565-5.306,6.16-5.306a10.188,10.188,0,0,1,6.539,2.239l-2.012,2.917a8.256,8.256,0,0,0-4.576-1.736c-1.484,0-2.264.679-2.264,1.534v.05c0,1.157.755,1.534,3.8,2.314,3.57.93,5.582,2.213,5.582,5.281v.05c0,3.495-2.665,5.457-6.463,5.457A11.2,11.2,0,0,1,261.177,39.078Z"></path><path class="a" d="M277.015,39.078l2.288-2.741a8.074,8.074,0,0,0,5.256,2.138c1.584,0,2.539-.629,2.539-1.66v-.05c0-.981-.6-1.484-3.545-2.238-3.546-.906-5.834-1.886-5.834-5.381v-.051c0-3.193,2.565-5.306,6.16-5.306a10.183,10.183,0,0,1,6.538,2.239l-2.011,2.917a8.256,8.256,0,0,0-4.576-1.736c-1.484,0-2.264.679-2.264,1.534v.05c0,1.157.755,1.534,3.8,2.314,3.57.93,5.582,2.213,5.582,5.281v.05c0,3.495-2.665,5.457-6.463,5.457A11.2,11.2,0,0,1,277.015,39.078Z"></path><path class="a" d="M294.312,24.041h3.873V38.123h8.775v3.52H294.312Z"></path><path class="a" d="M260.7,50.557l.88-1.054a3.1,3.1,0,0,0,2.021.822c.609,0,.977-.242.977-.638v-.02c0-.377-.232-.57-1.364-.86-1.363-.348-2.244-.726-2.244-2.07v-.019a2.118,2.118,0,0,1,2.37-2.041,3.917,3.917,0,0,1,2.514.861l-.773,1.122a3.179,3.179,0,0,0-1.761-.668c-.57,0-.87.261-.87.59v.02c0,.444.29.59,1.461.889,1.372.358,2.146.851,2.146,2.031v.02c0,1.344-1.025,2.1-2.485,2.1A4.308,4.308,0,0,1,260.7,50.557Z"></path><path class="a" d="M267.361,44.774h5.106V46.1H268.84v1.373h3.191V48.8H268.84v1.422h3.676v1.325h-5.155Z"></path><path class="a" d="M273.544,48.178v-.019a3.44,3.44,0,0,1,3.53-3.5,3.492,3.492,0,0,1,2.669,1.044l-.947,1.093a2.5,2.5,0,0,0-1.732-.764,2.006,2.006,0,0,0-1.963,2.108v.02a2.011,2.011,0,0,0,1.963,2.127,2.443,2.443,0,0,0,1.78-.793l.948.958a3.464,3.464,0,0,1-2.776,1.209A3.418,3.418,0,0,1,273.544,48.178Z"></path><path class="a" d="M280.879,48.642V44.774h1.489V48.6c0,1.1.552,1.672,1.46,1.672s1.461-.551,1.461-1.624V44.774h1.489v3.82a2.725,2.725,0,0,1-2.969,3.056A2.687,2.687,0,0,1,280.879,48.642Z"></path><path class="a" d="M288.3,44.774h3.1a2.7,2.7,0,0,1,1.973.686,2.127,2.127,0,0,1,.58,1.548v.019a2.1,2.1,0,0,1-1.451,2.1l1.654,2.418H292.41l-1.45-2.167h-1.171v2.167H288.3Zm3,3.288c.725,0,1.141-.387,1.141-.957v-.02c0-.638-.445-.967-1.17-.967h-1.48v1.944Z"></path><path class="a" d="M295.3,44.774H300.4V46.1h-3.626v1.373h3.19V48.8h-3.19v1.422h3.675v1.325H295.3Z"></path><path class="a" d="M301.779,44.774h2.64a3.374,3.374,0,0,1,3.6,3.365v.02a3.389,3.389,0,0,1-3.6,3.385h-2.64Zm2.64,5.425a1.929,1.929,0,0,0,2.041-2.021v-.019a1.944,1.944,0,0,0-2.041-2.041h-1.151V50.2Z"></path><path class="a" d="M208.272,39.482c0,15.489,15.1,23.351,21.584,26.012l.225.094a1.718,1.718,0,0,0,1.515,0l.225-.094C238.31,62.833,253.4,54.971,253.4,39.482V18.744a1.718,1.718,0,0,0-1.3-1.666l-20.849-5.17a1.726,1.726,0,0,0-.827,0l-20.849,5.17a1.718,1.718,0,0,0-1.3,1.666m41.7,20.738c0,13.172-13.123,20.185-19.133,22.7-6.01-2.518-19.133-9.532-19.133-22.7V20.087l19.133-4.745,19.133,4.745Z"></path><path class="a" d="M230.773,22.237A6.976,6.976,0,0,0,223.8,29.2v1.716a2.782,2.782,0,0,0-2.337,2.739V45.843a2.788,2.788,0,0,0,2.785,2.784h13.173a2.787,2.787,0,0,0,2.784-2.784V33.66a2.777,2.777,0,0,0-2.467-2.752V29.2A6.976,6.976,0,0,0,230.773,22.237Zm0,3.036a3.937,3.937,0,0,1,3.933,3.932v1.671H226.84V29.2A3.937,3.937,0,0,1,230.773,25.273Zm6.4,20.318H224.5V33.912h12.67Zm-3.93-9.621,2.1,2.1-3.185,3.185-2.1,2.1-2.1-2.1-1.625-1.625,2.1-2.1,1.624,1.625Z"></path></g></g></svg> 