<?xml version="1.0" encoding="UTF-8"?> <svg xmlns="http://www.w3.org/2000/svg" width="132.65" height="50.752" viewBox="0 0 132.65 50.752"><defs><style>.a{isolation:isolate;}.b{fill:#fff;}</style></defs><g transform="translate(-1029 -1145.248)"><g transform="translate(1011.921 1127.832)"><g class="a"><path class="b" d="M107.641,46.24l1.327.4a2.263,2.263,0,0,1-.42.929,1.713,1.713,0,0,1-.708.552,2.555,2.555,0,0,1-1.083.2,3.212,3.212,0,0,1-1.3-.221,2.018,2.018,0,0,1-.862-.818,2.724,2.724,0,0,1-.376-1.481,2.6,2.6,0,0,1,.641-1.857,2.394,2.394,0,0,1,1.813-.641,2.468,2.468,0,0,1,1.437.376,2.021,2.021,0,0,1,.773,1.15l-1.326.287a.766.766,0,0,0-.155-.332.913.913,0,0,0-.309-.265.874.874,0,0,0-.4-.088.852.852,0,0,0-.774.42,1.8,1.8,0,0,0-.2.95,1.9,1.9,0,0,0,.243,1.1.843.843,0,0,0,.686.31.816.816,0,0,0,.641-.243A1.5,1.5,0,0,0,107.641,46.24Z"></path><path class="b" d="M109.5,45.8a2.3,2.3,0,0,1,2.52-2.52,2.613,2.613,0,0,1,1.879.641,2.457,2.457,0,0,1,.663,1.835,2.837,2.837,0,0,1-.287,1.393,2.054,2.054,0,0,1-.84.84,2.765,2.765,0,0,1-1.349.309,3.154,3.154,0,0,1-1.37-.265,2.135,2.135,0,0,1-.884-.84A2.507,2.507,0,0,1,109.5,45.8Zm1.5,0a1.7,1.7,0,0,0,.266,1.061.9.9,0,0,0,.751.332.95.95,0,0,0,.752-.31,1.839,1.839,0,0,0,.265-1.127,1.379,1.379,0,0,0-.287-1A.912.912,0,0,0,112,44.45a.881.881,0,0,0-.729.331A1.478,1.478,0,0,0,111,45.8Z"></path><path class="b" d="M115.334,43.367H117.3l.752,2.962.751-2.962h1.967V48.23h-1.237V44.516l-.951,3.714h-1.105l-.951-3.714V48.23H115.29V43.367Z"></path><path class="b" d="M121.744,43.367h2.5a1.641,1.641,0,0,1,1.216.4,1.472,1.472,0,0,1,.4,1.1,1.512,1.512,0,0,1-.443,1.149,1.858,1.858,0,0,1-1.348.42h-.818v1.813h-1.5V43.367Zm1.5,2.078h.376a.95.95,0,0,0,.619-.155.509.509,0,0,0,.177-.376.532.532,0,0,0-.155-.4.782.782,0,0,0-.575-.155h-.42v1.084Z"></path><path class="b" d="M126.651,43.367h1.5v3.669H130.5V48.23h-3.847V43.367Z"></path><path class="b" d="M131.249,43.367h1.5V48.23h-1.5Z"></path><path class="b" d="M136.819,47.412h-1.7l-.243.8h-1.525l1.835-4.863h1.635l1.835,4.863h-1.569Zm-.309-1.039-.531-1.746-.53,1.746Z"></path><path class="b" d="M139.118,43.367h1.393l1.835,2.7v-2.7h1.414V48.23h-1.414l-1.813-2.675V48.23h-1.415V43.367Z"></path><path class="b" d="M144.423,43.367H149V44.56h-1.525v3.67h-1.5V44.56h-1.525V43.367Z"></path></g><path class="b" d="M92.5,46.262a36.038,36.038,0,0,0-2.94,4.51L93.914,49.4Z"></path><path class="b" d="M38.5,37.476H36.64v5.283h2.078A2.861,2.861,0,0,0,41.393,40.5a4.443,4.443,0,0,0,0-1.083C41.172,37.586,38.5,37.476,38.5,37.476Z"></path><path class="b" d="M17.079,20.953,34.387,68.168,67.7,57.668a11.019,11.019,0,0,1-1.863-4.189H65.8c-.221,0-2.453.088-3.6,0C50.5,52.75,50.5,44.417,50.5,44.173V42.184c0-.354.42-8.51,11.693-9.416a21.363,21.363,0,0,1,3.6,0c3.1.176,4.112.839,4.112.839a.227.227,0,0,1,.11.177v5.129c0,.066-.044.088-.11.066a11.535,11.535,0,0,0-4.045-1.393H63.94c-5.107.442-5.46,4.532-5.46,4.532a.682.682,0,0,0-.022.221V43.8c0,.044.022.154.022.221,0,0,.243,3.8,5.46,4.686a6.572,6.572,0,0,0,1.923,0c3.669-.376,4.509-1.039,4.509-1.039.044-.044.088-.022.088.044v.848a8.509,8.509,0,0,1,3.272,1.415v-16.9h7.737V45.7c2.734-3.933,5.64-7.946,6.61-9.27l-8.533-19.01Zm19.8,26.293a.1.1,0,0,0-.111.111v5.879a.1.1,0,0,1-.111.111H29.125a.1.1,0,0,1-.111-.111V33.187a.1.1,0,0,1,.111-.11H38.9c2.476-.111,10.036.575,10.036,6.963C48.931,48.108,36.884,47.246,36.884,47.246ZM82.331,26.689A4.738,4.738,0,1,1,77.6,22.224,4.6,4.6,0,0,1,82.331,26.689Z"></path><path class="b" d="M77.822,63.062a3.975,3.975,0,0,0,1.9-.354c2.741-1.437,12-24.05,21.773-31.012a.677.677,0,0,0,.177-.177.326.326,0,0,0,.066-.177s0-.464-1.436-.464c-8.688-.244-17.728,17.993-22.481,25.2-.066.088-.376,0-.376,0s-3.183-3.758-5.946-5.195a1.9,1.9,0,0,0-.707-.11,4.009,4.009,0,0,0-2.1.884,2.351,2.351,0,0,0-.685,2.078,1.53,1.53,0,0,0,.132.53,45.475,45.475,0,0,0,6.3,7.781C74.816,62.333,75.413,63.062,77.822,63.062Z"></path><g class="a"><path class="b" d="M104.06,24.865h7.229a8.741,8.741,0,0,1,3.448.575A5.618,5.618,0,0,1,116.9,27.1a6.711,6.711,0,0,1,1.238,2.52,11.31,11.31,0,0,1,.4,3.05,10.744,10.744,0,0,1-.575,3.913,6.49,6.49,0,0,1-1.591,2.343,5.535,5.535,0,0,1-2.189,1.26,11.173,11.173,0,0,1-2.895.42H104.06V24.865Zm4.863,3.559v8.6h1.194a5.056,5.056,0,0,0,2.166-.332A2.343,2.343,0,0,0,113.3,35.52a7.4,7.4,0,0,0,.376-2.741,5.239,5.239,0,0,0-.818-3.427,3.454,3.454,0,0,0-2.719-.928Z"></path><path class="b" d="M119.887,35.409l4.642-.287a3.675,3.675,0,0,0,.619,1.724,2.564,2.564,0,0,0,2.144.95,2.384,2.384,0,0,0,1.614-.486,1.4,1.4,0,0,0,.044-2.232,6.109,6.109,0,0,0-2.5-.907,10.746,10.746,0,0,1-4.575-1.923,3.817,3.817,0,0,1-1.371-3.05,4.186,4.186,0,0,1,.708-2.3,4.6,4.6,0,0,1,2.122-1.7,9.745,9.745,0,0,1,3.868-.619,7.846,7.846,0,0,1,4.6,1.127,4.842,4.842,0,0,1,1.879,3.581l-4.6.265A2.52,2.52,0,0,0,128.309,28a2.422,2.422,0,0,0-1.613-.486,1.934,1.934,0,0,0-1.283.353,1.1,1.1,0,0,0-.42.885.88.88,0,0,0,.354.685,4.06,4.06,0,0,0,1.636.575,21.33,21.33,0,0,1,4.576,1.392,4.8,4.8,0,0,1,2.011,1.746,4.424,4.424,0,0,1,.619,2.344,4.97,4.97,0,0,1-.84,2.785,5.217,5.217,0,0,1-2.343,1.945,9.46,9.46,0,0,1-3.8.663c-2.675,0-4.532-.508-5.57-1.547A6.29,6.29,0,0,1,119.887,35.409Z"></path></g><g class="a"><path class="b" d="M135.427,35.409l4.642-.287a3.653,3.653,0,0,0,.619,1.724,2.562,2.562,0,0,0,2.144.95,2.386,2.386,0,0,0,1.614-.486,1.4,1.4,0,0,0,.044-2.232,6.122,6.122,0,0,0-2.5-.907,10.757,10.757,0,0,1-4.576-1.923,3.887,3.887,0,0,1-1.37-3.05,4.193,4.193,0,0,1,.707-2.3,4.609,4.609,0,0,1,2.122-1.7,9.751,9.751,0,0,1,3.868-.619,7.844,7.844,0,0,1,4.6,1.127,4.842,4.842,0,0,1,1.879,3.581l-4.6.265A2.514,2.514,0,0,0,143.849,28a2.425,2.425,0,0,0-1.614-.486,1.929,1.929,0,0,0-1.282.353,1.1,1.1,0,0,0-.42.885.88.88,0,0,0,.354.685,4.053,4.053,0,0,0,1.635.575,21.311,21.311,0,0,1,4.576,1.392,4.806,4.806,0,0,1,2.012,1.746,4.424,4.424,0,0,1,.619,2.344,4.978,4.978,0,0,1-.84,2.785,5.22,5.22,0,0,1-2.344,1.945,9.453,9.453,0,0,1-3.8.663c-2.674,0-4.531-.508-5.57-1.547A6.059,6.059,0,0,1,135.427,35.409Z"></path></g></g></g></svg> 