<?xml version="1.0" encoding="UTF-8"?> <svg xmlns="http://www.w3.org/2000/svg" width="120.292" height="53.603" viewBox="0 0 120.292 53.603"><defs><style>.a{fill:#fff;}</style></defs><g transform="translate(-202.408 -74.754)"><path class="a" d="M260.7,97.48v-.042a7.691,7.691,0,0,1,7.856-7.75,8.229,8.229,0,0,1,5.887,2.054l-2.076,2.505a5.522,5.522,0,0,0-3.918-1.519,4.5,4.5,0,0,0-4.3,4.667v.043a4.49,4.49,0,0,0,4.538,4.752,5.263,5.263,0,0,0,3.1-.9V99.15h-3.318V96.3h6.509v6.508a9.734,9.734,0,0,1-6.4,2.376A7.5,7.5,0,0,1,260.7,97.48Z"></path><path class="a" d="M278.155,89.945H284c4.71,0,7.964,3.232,7.964,7.45v.043c0,4.217-3.254,7.492-7.964,7.492h-5.844ZM284,101.954a4.269,4.269,0,0,0,4.517-4.474v-.042A4.3,4.3,0,0,0,284,92.92h-2.547v9.034Z"></path><path class="a" d="M294.9,89.945h6.122c3.575,0,5.737,2.119,5.737,5.18v.043c0,3.468-2.7,5.267-6.057,5.267H298.2v4.5h-3.3Zm5.908,7.556a2.32,2.32,0,0,0,2.612-2.268V95.19c0-1.478-1.028-2.27-2.676-2.27H298.2V97.5Z"></path><path class="a" d="M309.2,89.945h6.85a5.973,5.973,0,0,1,4.367,1.519,4.706,4.706,0,0,1,1.285,3.426v.043a4.654,4.654,0,0,1-3.211,4.645l3.661,5.352H318.3l-3.211-4.795H312.5v4.795h-3.3Zm6.636,7.278c1.606,0,2.527-.857,2.527-2.119v-.043c0-1.413-.986-2.141-2.591-2.141H312.5v4.3Z"></path><path class="a" d="M260.7,111.027v-.021a3.556,3.556,0,0,1,3.647-3.618,3.611,3.611,0,0,1,2.759,1.08l-.98,1.129a2.586,2.586,0,0,0-1.789-.789,2.073,2.073,0,0,0-2.029,2.179v.019a2.079,2.079,0,0,0,2.029,2.2,2.527,2.527,0,0,0,1.839-.819l.98.989a3.577,3.577,0,0,1-2.869,1.249A3.531,3.531,0,0,1,260.7,111.027Z"></path><path class="a" d="M267.883,111.027v-.021a3.72,3.72,0,0,1,7.436-.019v.019a3.72,3.72,0,0,1-7.436.021Zm5.826,0v-.021a2.124,2.124,0,0,0-2.118-2.2,2.092,2.092,0,0,0-2.1,2.179v.019a2.126,2.126,0,0,0,2.119,2.2A2.091,2.091,0,0,0,273.709,111.027Z"></path><path class="a" d="M276.693,107.508h1.659l1.839,2.959,1.839-2.959h1.659v7H282.16v-4.567l-1.969,2.988h-.04l-1.949-2.958V114.5h-1.509Z"></path><path class="a" d="M285.373,107.508h2.858a2.4,2.4,0,0,1,2.679,2.419v.019c0,1.62-1.26,2.459-2.829,2.459h-1.169v2.1h-1.539Zm2.758,3.528a1.083,1.083,0,0,0,1.219-1.059v-.02c0-.69-.479-1.059-1.249-1.059h-1.189v2.138Z"></path><path class="a" d="M292.052,107.508h1.54v5.6h3.488v1.4h-5.028Z"></path><path class="a" d="M298.313,107.508h1.539v7h-1.539Z"></path><path class="a" d="M304,107.458h1.419l3,7.046H306.81l-.64-1.569h-2.959l-.639,1.569H301Zm1.62,4.118-.93-2.269-.93,2.269Z"></path><path class="a" d="M309.5,107.508h1.419l3.279,4.308v-4.308h1.519v7H314.41l-3.388-4.447V114.5H309.5Z"></path><path class="a" d="M319.032,108.927H316.9v-1.419h5.8v1.419h-2.129V114.5h-1.539Z"></path><path class="a" d="M235.709,97.44V95.407a6.322,6.322,0,0,0-12.643,0v2.034a3.45,3.45,0,0,0-1.8,3.028V108.7a3.453,3.453,0,0,0,3.449,3.449h9.346a3.453,3.453,0,0,0,3.449-3.449v-8.233A3.454,3.454,0,0,0,235.709,97.44Zm-11.391-2.033a5.069,5.069,0,0,1,10.138,0v1.638a3.436,3.436,0,0,0-.4-.025h-.338V95.566a4.335,4.335,0,1,0-8.669,0V97.02h-.339a3.451,3.451,0,0,0-.4.025Zm8.152,1.613H226.3V95.566a3.083,3.083,0,1,1,6.165,0Zm3.787,11.682a2.2,2.2,0,0,1-2.2,2.2h-9.346a2.2,2.2,0,0,1-2.2-2.2v-8.233a2.2,2.2,0,0,1,2.2-2.2h9.346a2.2,2.2,0,0,1,2.2,2.2Z"></path><path class="a" d="M229.387,100.589a2.495,2.495,0,0,0-1.74,4.286v1.967a1.74,1.74,0,1,0,3.48,0v-1.967a2.495,2.495,0,0,0-1.74-4.286Zm.741,3.5a.625.625,0,0,0-.253.5v2.254a.488.488,0,1,1-.976,0v-2.254a.624.624,0,0,0-.252-.5,1.245,1.245,0,1,1,1.481,0Z"></path><path class="a" d="M229.387,74.754l.858,2.64h2.775l-2.245,1.631.858,2.64-2.245-1.631-2.245,1.631.858-2.64-2.245-1.631h2.775Z"></path><path class="a" d="M241.094,77.916l.858,2.64h2.775l-2.245,1.631.858,2.64L241.094,83.2l-2.245,1.631.858-2.64-2.245-1.631h2.775Z"></path><path class="a" d="M249.638,86.528l.858,2.64h2.775L251.026,90.8l.858,2.64-2.245-1.631-2.245,1.631.858-2.64-2.245-1.631h2.775Z"></path><path class="a" d="M252.733,98.235l.858,2.64h2.775l-2.245,1.631.858,2.64-2.245-1.631-2.245,1.631.858-2.64-2.245-1.631h2.775Z"></path><path class="a" d="M249.706,109.941l.858,2.64h2.775l-2.245,1.631.858,2.64-2.245-1.631-2.245,1.631.858-2.64-2.245-1.631h2.775Z"></path><path class="a" d="M241.027,118.486l.858,2.64h2.775l-2.245,1.631.858,2.64-2.245-1.631-2.245,1.631.858-2.64-2.245-1.631h2.775Z"></path><path class="a" d="M229.387,121.446l.858,2.64h2.775l-2.245,1.631.858,2.64-2.245-1.631-2.245,1.631.858-2.64-2.245-1.631h2.775Z"></path><path class="a" d="M217.748,118.553l.858,2.64h2.775l-2.245,1.631.858,2.64-2.245-1.631-2.245,1.631.858-2.64-2.245-1.631h2.775Z"></path><path class="a" d="M209.2,110.008l.858,2.64h2.775l-2.245,1.631.858,2.64-2.245-1.631-2.245,1.631.858-2.64-2.245-1.631h2.775Z"></path><path class="a" d="M206.041,98.3l.858,2.64h2.775l-2.245,1.631.858,2.64-2.245-1.631-2.245,1.631.858-2.64-2.245-1.631h2.775Z"></path><path class="a" d="M209.2,86.528l.858,2.64h2.775L210.591,90.8l.858,2.64L209.2,91.807l-2.245,1.631.858-2.64-2.245-1.631h2.775Z"></path><path class="a" d="M217.681,77.983l.858,2.64h2.775l-2.245,1.631.858,2.64-2.245-1.631-2.245,1.631.858-2.64-2.245-1.631h2.775Z"></path></g></svg> 